<?xml version="1.0" standalone="no"?>
<!DOCTYPE svg PUBLIC "-//W3C//DTD SVG 20010904//EN"
 "http://www.w3.org/TR/2001/REC-SVG-20010904/DTD/svg10.dtd">
<svg version="1.0" xmlns="http://www.w3.org/2000/svg"
 width="1123.000000pt" height="1123.000000pt" viewBox="0 0 1123.000000 1123.000000"
 preserveAspectRatio="xMidYMid meet">
<metadata>
Created by potrace 1.14, written by Peter Selinger 2001-2017
</metadata>
<g transform="translate(0.000000,1123.000000) scale(0.100000,-0.100000)"
fill="#000000" stroke="none">
<path d="M4898 10345 c-2 -2 -25 -6 -53 -10 -27 -3 -55 -11 -62 -17 -7 -6 -13
-8 -13 -5 0 7 -34 -11 -89 -48 -24 -17 -51 -34 -59 -40 -8 -5 -59 -53 -112
-105 -180 -175 -239 -223 -321 -259 -91 -40 -223 -44 -431 -12 -35 6 -83 13
-108 16 -25 3 -56 8 -70 11 -14 2 -68 6 -120 9 -109 5 -201 -12 -254 -47 -43
-28 -91 -100 -106 -158 -19 -72 -16 -280 5 -360 2 -8 6 -31 9 -50 3 -19 15
-71 26 -115 21 -81 26 -103 34 -141 9 -45 35 -91 64 -114 18 -14 32 -28 32
-33 0 -4 -12 -26 -27 -50 -14 -23 -25 -44 -24 -46 2 -2 -1 -7 -6 -10 -8 -6
-66 -100 -68 -111 -1 -5 -37 -81 -42 -89 -1 -2 -8 1 -16 7 -27 23 -144 17
-167 -8 -3 -3 -22 -14 -43 -25 -151 -79 -378 -306 -475 -476 -25 -45 -73 -171
-87 -229 -15 -65 -110 -332 -134 -378 -29 -55 -75 -162 -81 -189 -10 -43 6
-113 38 -171 28 -51 153 -180 202 -209 16 -9 30 -21 30 -25 0 -4 5 -8 12 -8 6
0 19 -6 27 -14 26 -23 180 -102 265 -136 123 -49 279 -74 320 -52 4 2 25 6 45
7 20 2 50 6 66 9 17 2 48 7 70 11 23 3 50 7 60 9 28 5 94 16 130 21 17 2 41 6
55 9 14 2 81 14 150 26 135 24 155 28 155 30 0 1 11 3 25 5 49 7 85 15 110 24
14 5 34 12 45 17 11 4 29 8 40 10 11 1 56 9 100 16 115 19 160 17 158 -6 -3
-36 -15 -118 -27 -183 -6 -29 -4 -33 16 -34 13 -1 26 -1 31 0 4 0 7 -4 7 -10
0 -5 3 -8 8 -5 4 2 32 -2 62 -9 l55 -14 -102 2 c-63 1 -104 -2 -107 -8 -2 -6
-2 -222 1 -480 4 -462 7 -506 36 -488 6 4 30 6 52 4 22 -2 105 -4 185 -4 l144
-2 1 145 c0 80 -3 164 -6 188 -3 23 -3 42 0 42 8 0 5 69 -3 77 -3 3 -1 14 5
24 5 11 6 19 2 19 -5 0 -7 26 -6 58 2 31 3 62 3 67 0 6 -1 87 -3 180 l-2 170
-28 3 c-29 4 -28 0 -11 80 3 15 8 41 10 57 2 17 9 60 15 96 l12 67 61 12 c93
20 206 76 256 128 27 29 37 32 107 38 43 3 90 7 106 8 24 2 27 -1 28 -28 1
-17 2 -42 4 -56 2 -14 6 -52 9 -85 4 -33 9 -76 11 -95 3 -19 7 -64 10 -100 3
-36 8 -74 10 -85 2 -11 4 -33 4 -49 l1 -29 53 8 c28 4 63 9 77 11 14 3 45 6
70 8 25 2 52 6 60 9 8 3 24 7 35 9 21 4 22 10 10 118 -3 30 -8 80 -11 110 -2
30 -6 71 -8 90 -3 19 -7 64 -11 100 -3 36 -8 75 -10 88 -3 15 1 22 13 23 18 1
19 1 132 23 98 20 118 24 138 30 9 3 33 8 52 11 l36 6 1 -163 c1 -90 2 -163 3
-163 1 0 2 -49 3 -110 l2 -110 80 1 c44 1 119 4 166 5 l86 4 -2 115 c-8 335
-8 497 -2 506 7 12 184 9 269 -5 4 0 5 -18 2 -38 -8 -58 -13 -106 -19 -180 -3
-38 -8 -86 -11 -108 -3 -22 -7 -67 -9 -100 -2 -33 -5 -60 -5 -60 -1 0 -3 -18
-5 -40 -8 -90 -16 -161 -21 -177 -4 -13 0 -18 13 -19 10 0 27 -2 38 -4 11 -2
39 -6 63 -9 49 -5 68 -15 31 -17 -13 -1 -42 -3 -64 -5 -22 -2 -55 -4 -72 -5
l-33 -1 5 -81 c3 -45 8 -111 10 -147 2 -36 7 -92 10 -125 3 -33 8 -98 11 -145
3 -47 7 -103 9 -125 2 -22 7 -80 10 -130 4 -49 8 -103 10 -120 1 -16 3 -45 4
-63 l1 -34 88 7 c48 4 103 9 122 11 35 4 105 9 169 12 l33 2 -7 108 c-4 59 -9
115 -11 125 -1 10 -4 46 -5 80 -1 34 -6 68 -12 75 -6 8 -6 12 2 12 7 0 10 3 7
8 -2 4 -7 45 -11 92 -3 47 -8 103 -10 125 -2 22 -7 85 -11 140 -4 55 -8 118
-9 140 -4 64 -5 65 -12 64 -40 -6 -44 0 -38 64 4 34 8 80 10 102 4 44 13 136
20 203 2 23 7 68 10 100 10 107 17 167 21 174 4 6 44 -3 89 -22 11 -4 70 -25
130 -45 61 -21 118 -42 128 -47 18 -9 18 -5 1 -298 -12 -223 -12 -249 6 -255
9 -3 52 -7 96 -10 43 -2 79 -5 79 -6 0 0 23 -3 50 -5 28 -2 56 -6 63 -9 8 -3
12 7 13 33 0 20 2 60 4 87 1 28 6 115 10 195 4 80 9 147 11 149 2 2 30 -4 61
-13 32 -9 69 -19 82 -22 14 -3 28 -7 33 -10 9 -6 3 -4 161 -39 64 -14 120 -24
125 -24 4 1 9 0 12 -1 41 -18 365 -28 451 -14 24 4 51 8 59 9 41 5 107 29 140
50 82 52 116 133 107 259 -3 44 -8 90 -10 101 -3 11 -8 43 -11 70 -4 28 -9 61
-11 75 -18 89 -22 223 -10 305 9 65 38 141 82 218 46 80 162 316 191 387 13
30 27 64 33 75 47 101 119 384 123 486 2 37 5 70 8 75 5 10 4 21 -6 105 -17
144 -55 229 -141 314 -67 66 -192 135 -245 135 -11 0 -20 5 -20 11 0 5 -3 8
-8 5 -4 -2 -27 0 -52 6 -25 5 -182 11 -350 13 -419 6 -491 13 -551 51 -58 36
-135 116 -180 188 -21 33 -42 66 -46 71 -5 6 -17 28 -28 50 -97 191 -292 334
-495 363 -79 11 -200 3 -285 -18 -22 -6 -49 -13 -60 -15 -33 -8 -209 -77 -222
-88 -7 -5 -13 -6 -13 -2 0 4 -7 2 -15 -5 -8 -7 -15 -9 -15 -4 0 5 -4 4 -8 -1
-15 -21 -336 -143 -422 -161 -19 -3 -85 -8 -145 -9 -93 -3 -121 0 -179 20 -38
13 -81 32 -97 44 -15 12 -32 21 -37 21 -5 0 -61 51 -123 113 -135 134 -167
159 -237 186 -45 18 -154 35 -164 26z"/>
<path d="M5752 6085 l-3 -525 200 0 199 0 2 188 c0 103 2 339 3 525 l3 337
-201 0 -200 0 -3 -525z"/>
<path d="M5139 6506 c-2 -28 -9 -196 -14 -341 -3 -88 -8 -221 -10 -295 -3 -74
-7 -179 -8 -232 l-4 -98 51 -1 c94 -2 251 -7 300 -10 l50 -3 2 34 c2 19 5 116
8 215 3 99 6 180 6 180 1 0 3 56 5 125 2 69 6 193 9 276 l5 151 -67 -1 c-37
-1 -77 2 -89 6 -14 5 -23 3 -23 -3 0 -6 -5 -7 -12 -3 -20 13 -208 12 -209 0z"/>
<path d="M7047 6446 c-2 -6 -3 -44 -3 -83 1 -40 -1 -73 -4 -73 -3 0 -6 -51 -6
-113 -1 -61 -5 -195 -8 -297 -16 -431 -16 -400 2 -401 9 -1 60 -3 112 -5 52
-2 134 -5 183 -7 56 -2 87 1 88 7 4 37 10 185 24 621 3 77 7 186 10 243 2 56
1 102 -3 103 -4 0 -49 2 -99 4 -51 2 -97 6 -102 9 -5 4 -12 2 -16 -4 -4 -6
-11 -8 -16 -4 -18 11 -158 11 -162 0z"/>
<path d="M4179 5476 c-1 -6 -2 -24 -4 -41 -1 -16 -6 -95 -10 -175 -4 -80 -8
-176 -10 -215 -2 -38 -6 -124 -9 -190 -3 -66 -8 -160 -11 -210 -3 -49 -7 -139
-10 -200 -3 -60 -8 -150 -10 -200 -3 -49 -7 -142 -10 -205 -3 -63 -7 -159 -10
-212 l-4 -98 52 -1 c29 0 109 -2 179 -3 70 -2 130 0 135 3 4 3 9 29 9 56 1 47
10 253 19 430 2 44 6 130 9 190 3 61 8 157 11 215 3 58 8 145 10 194 2 48 6
90 9 93 2 3 1 16 -4 29 -5 13 -6 24 -2 24 4 0 7 21 8 48 0 42 11 275 18 420
l3 52 -46 1 c-25 0 -108 2 -183 3 -98 3 -138 0 -139 -8z"/>
<path d="M6065 5472 c-2 -2 -70 -6 -152 -9 -81 -2 -150 -8 -153 -13 -5 -8 -5
-1775 0 -1775 4 0 7 -76 14 -350 6 -227 12 -474 20 -785 2 -63 -1 -122 -5
-132 -10 -18 -15 -93 -33 -433 -3 -55 -8 -136 -10 -180 -3 -44 -8 -118 -10
-165 -3 -47 -8 -132 -12 -190 -3 -58 -7 -130 -9 -160 -2 -30 -6 -113 -10 -185
-4 -71 -9 -148 -10 -170 -4 -41 -7 -151 -6 -171 1 -6 13 -11 29 -11 38 -1 178
-12 227 -18 22 -3 72 -7 110 -10 39 -3 83 -7 99 -8 15 -2 30 2 32 7 5 16 27
403 28 488 0 27 3 48 6 48 3 0 5 33 6 73 0 39 4 124 8 187 4 63 9 151 11 195
6 119 14 254 31 515 2 41 6 90 7 107 2 29 -3 37 -23 35 -3 0 -6 45 -7 101 0
56 -3 210 -6 342 -4 132 -9 353 -12 490 -9 400 -7 380 -37 379 l-24 -1 0 895
c1 491 -1 897 -4 900 -5 7 -99 10 -105 4z m-81 -1803 c3 -3 -4 -5 -14 -6 -11
-1 -20 2 -20 7 0 8 25 8 34 -1z m66 1 c0 -5 -2 -10 -4 -10 -3 0 -8 5 -11 10
-3 6 -1 10 4 10 6 0 11 -4 11 -10z m-235 -9 c-9 -8 -36 -10 -30 -2 2 4 11 8
20 8 8 0 13 -3 10 -6z m42 3 c-3 -3 -12 -4 -19 -1 -8 3 -5 6 6 6 11 1 17 -2
13 -5z m40 0 c-3 -3 -12 -4 -19 -1 -8 3 -5 6 6 6 11 1 17 -2 13 -5z m40 0 c-3
-3 -12 -4 -19 -1 -8 3 -5 6 6 6 11 1 17 -2 13 -5z"/>
<path d="M5178 5462 l-68 -3 -1 -52 c-1 -98 -7 -462 -14 -797 -4 -184 -8 -426
-10 -537 -1 -110 -6 -206 -9 -211 -3 -6 -2 -13 4 -17 5 -3 8 -16 5 -28 -9 -36
-12 -126 -4 -138 6 -10 101 -12 257 -6 23 1 42 -1 42 -5 0 -5 -26 -9 -57 -9
-57 -1 -183 -5 -233 -8 l-26 -1 3 -97 c1 -54 5 -188 8 -298 3 -110 5 -209 5
-220 -1 -11 -1 -24 -1 -30 11 -384 13 -480 13 -530 -1 -88 -4 -1687 -3 -1707
1 -15 11 -17 76 -16 41 1 78 -2 81 -5 4 -4 12 -3 18 0 6 4 83 6 171 5 l160 -1
-2 831 c-1 457 -5 834 -10 837 -4 3 -9 47 -9 96 -4 262 -13 578 -18 582 -2 3
-1 16 4 29 5 13 6 24 2 24 -4 0 -9 100 -11 223 -5 324 -1 292 -38 291 -20 0
-29 4 -25 10 4 6 7 67 9 136 3 187 13 693 19 970 3 135 5 251 5 258 -2 27 -2
45 2 232 l4 196 -141 -1 c-77 0 -171 -1 -208 -3z m252 -1792 c0 -5 -5 -10 -11
-10 -5 0 -7 5 -4 10 3 6 8 10 11 10 2 0 4 -4 4 -10z"/>
<path d="M6737 5434 c-1 -2 -45 -6 -97 -10 -52 -3 -111 -8 -130 -9 -19 -2 -49
-4 -66 -4 l-31 -1 3 -177 c1 -98 5 -371 9 -608 3 -236 8 -547 10 -690 2 -143
4 -266 5 -273 0 -13 48 -13 270 4 41 3 81 6 87 7 10 0 12 73 9 325 -3 178 -7
326 -10 329 -3 3 -1 14 5 24 5 11 6 19 2 19 -4 0 -9 154 -11 343 -2 298 -8
701 -11 717 -1 5 -39 8 -44 4z"/>
<path d="M7123 5402 c-99 -3 -103 -4 -104 -25 0 -12 -2 -112 -4 -222 -2 -110
-7 -317 -10 -460 -3 -143 -6 -266 -5 -272 0 -7 0 -19 0 -25 1 -15 -10 -573
-13 -701 -2 -53 1 -88 8 -90 5 -2 52 -3 103 -2 51 1 95 -2 97 -5 4 -6 -91 -13
-186 -12 l-36 0 3 -137 c1 -75 5 -242 9 -371 3 -129 8 -316 11 -415 3 -99 6
-209 7 -245 2 -36 1 -69 -2 -75 -3 -5 -6 -380 -6 -832 l0 -823 30 -1 c38 -1
238 -1 372 0 l102 1 -3 833 c-2 457 -6 877 -9 932 -3 55 -8 192 -12 305 -3
113 -8 293 -11 400 -3 107 -6 251 -8 320 l-2 125 -31 0 c-17 0 -35 4 -40 9 -5
5 -3 6 5 2 7 -4 12 -2 13 6 2 38 12 534 24 1228 3 168 7 360 9 428 2 83 0 122
-8 123 -32 3 -214 4 -303 1z m217 -1796 c0 -2 -19 -3 -42 -3 -38 -1 -40 0 -13
6 26 6 55 4 55 -3z m-90 -4 c0 -4 -9 -8 -20 -8 -11 0 -20 4 -20 8 0 4 9 8 20
8 11 0 20 -4 20 -8z"/>
<path d="M4039 3681 c0 -9 -2 -61 -4 -116 -4 -116 -14 -360 -21 -525 -3 -63
-7 -171 -10 -240 -6 -174 -12 -332 -13 -352 -1 -10 -7 -18 -14 -18 -8 0 -13
-16 -14 -42 0 -24 -5 -108 -9 -188 -4 -80 -8 -178 -8 -217 -1 -40 -3 -73 -6
-73 -3 0 -6 -44 -7 -98 -1 -53 -4 -149 -8 -212 -12 -220 -15 -286 -19 -390 -3
-58 -8 -161 -11 -230 -11 -205 -11 -210 0 -211 35 -4 80 -8 155 -13 47 -4 108
-9 135 -11 28 -2 84 -6 126 -9 l75 -5 2 27 c6 144 11 244 16 332 4 58 8 148
11 200 2 52 6 147 10 210 3 63 7 158 10 210 2 52 6 140 9 195 17 307 21 454
15 505 -1 8 2 94 6 190 12 302 15 392 19 495 2 55 7 181 11 280 4 99 7 207 8
239 l2 59 -45 3 c-49 3 -219 12 -342 18 -67 3 -78 1 -79 -13z"/>
<path d="M6625 3620 c-44 -3 -113 -5 -153 -5 -56 0 -73 -3 -76 -15 -3 -8 -2
-73 0 -145 3 -71 4 -139 4 -150 -1 -11 -1 -24 -1 -30 4 -100 11 -356 16 -560
4 -143 7 -282 9 -310 2 -57 -2 -77 -15 -69 -9 5 -8 -195 7 -1066 3 -195 6
-409 7 -475 l2 -120 110 1 c61 1 174 3 252 5 l141 3 -3 220 c-2 122 -7 417
-10 656 -4 239 -8 509 -10 600 -1 91 -5 176 -9 190 -3 14 -9 122 -11 240 -3
118 -8 305 -10 415 -3 110 -7 279 -9 375 -3 96 -5 192 -5 212 l-1 37 -77 -2
c-43 -1 -114 -4 -158 -7z"/>
</g>
</svg>
